<?xml version="1.0" encoding="UTF-8"?><svg id="Layer_2" xmlns="http://www.w3.org/2000/svg" width="146.19" height="126.88" viewBox="0 0 146.19 126.88"><defs><style>.cls-1{fill:#fff;}</style></defs><g id="Layer_2-2"><path class="cls-1" d="M68.93,121.39c-15.33-2.2-23.01-8.41-23.08-8.47-.64-.53-1.58-.44-2.11.2-.53.64-.44,1.58.19,2.11.13.11,1.37,1.12,3.75,2.46-8.75,6.06-21.37,5.38-28.37,4.36-.23-.03-.31-.18-.35-.3-.04-.12-.04-.3.14-.45l5.89-4.96c.46-.39.65-1.02.46-1.6-.18-.58-.7-.99-1.3-1.04-4.75-.41-15.8-2.43-17.62-12.25,9.75,3.73,13.21,2.45,13.81,2.15.66-.33.98-1.08.76-1.78l-6.64-21.57c-1.17-3.81-.1-7.87,2.79-10.61.03-.03.06-.06.08-.08l15.31-16.99s0-.02.02-.03c.12-.14.21-.29.27-.45,0-.02.02-.04.02-.06.05-.16.08-.33.07-.5,0-.02,0-.04,0-.07-.01-.17-.05-.33-.12-.49-.01-.02-.02-.05-.03-.07-.01-.03-.02-.06-.04-.09-.07-.13-.17-.24-.27-.33,0,0-.01-.02-.02-.03,0,0-.02,0-.03-.02-.13-.12-.29-.2-.45-.27-.02,0-.05-.02-.07-.03-.16-.05-.32-.07-.49-.07-.03,0-.05,0-.08,0-.16.01-.32.05-.48.12-.03.01-.05.02-.08.04-.03.01-.06.02-.08.04-10.21,5.91-18.76,7.2-23.47,3.53-4.42-3.44-5.5-10.97-3.11-21.37,10.72,16.11,28.08,13.05,28.27,13.01.06-.01.12-.03.18-.05.02,0,.05-.01.07-.02.14-.05.27-.12.38-.21.02-.02.04-.03.06-.05.11-.1.21-.2.29-.33.01-.02.02-.03.03-.05.13-.22.21-.48.21-.74,0-.2-.04-.4-.11-.58,0-.01-.01-.02-.02-.03-.03-.08-.07-.15-.12-.23,0-.01-.02-.02-.02-.03-.21-.3-.53-.53-.91-.61-9.46-2.01-14.52-8.44-13.53-17.18,1.2-10.63,11.16-21.46,25.99-22.25-10.88,25.94-3.93,35.5-3.62,35.91.5.66,1.45.78,2.1.28.66-.5.78-1.44.28-2.1-.07-.09-6.57-9.07,4.9-35.02.2-.46.16-.99-.11-1.41-.27-.42-.74-.68-1.24-.69-.2,0-.4,0-.59,0C29.24,0,17.4,12.6,16,24.95c-.69,6.08,1.25,13.04,7.87,17.29-5.84-1.07-13.61-4.47-18.88-14.4-.29-.54-.87-.85-1.48-.79-.61.06-1.12.49-1.29,1.08-3.83,13.45-2.67,23.39,3.26,28.01,2.32,1.81,5.24,2.71,8.64,2.71,1.09,0,2.24-.11,3.43-.3l-16.25,7.17c-.76.33-1.1,1.22-.77,1.98.25.56.8.89,1.37.89.2,0,.41-.04.6-.13l19.53-8.62-6.88,7.63c-3.69,3.53-5.05,8.75-3.55,13.63l6.13,19.92c-1.66.03-4.95-.35-10.71-2.62-.87-.34-1.86-.2-2.59.38-.74.58-1.1,1.48-.97,2.4.53,3.87,3.28,12.63,16.99,15.04l-3.28,2.76c-1.05.88-1.47,2.25-1.09,3.57.38,1.32,1.45,2.25,2.8,2.45,2.56.37,5.83.7,9.41.7,7.31,0,15.9-1.37,22.37-6.5,4.06,1.91,9.98,4.02,17.85,5.15.07.01.14.02.21.02.73,0,1.38-.54,1.48-1.29.12-.82-.45-1.58-1.27-1.7Z"/><path class="cls-1" d="M39.48,77.84c2.48-.75,4.62-.61,6.35.42,3.32,1.97,4.32,6.6,4.33,6.64.17.81.97,1.33,1.77,1.17.81-.17,1.34-.96,1.17-1.77-.05-.24-1.25-5.94-5.72-8.61-2.49-1.49-5.44-1.73-8.77-.72-4.4,1.33-7.78,5.28-9.51,11.11-2.07,6.96-1.33,14.93,1.71,18.54,2.94,3.5,6.36,5.42,9.64,5.42.03,0,.07,0,.1,0,2.82-.03,5.44-1.47,7.58-4.15.52-.65.41-1.59-.24-2.11-.65-.52-1.59-.41-2.11.24-1.58,1.98-3.36,3-5.27,3.02h-.07c-2.38,0-4.99-1.54-7.35-4.35-2.37-2.81-2.87-9.88-1.13-15.76.83-2.8,2.91-7.7,7.51-9.1Z"/><path class="cls-1" d="M145.42,53.41c-4.96-2.77-7.5-6.78-8.77-9.66-1.2-2.73-3.16-4.98-5.67-6.51l-22.6-13.78c-2.24-1.36-4.8-2.09-7.42-2.09l-15.72-.04h-.04c-1.74,0-3.45.31-5.08.93l-28.12,10.66c-.77.29-1.16,1.16-.87,1.93.29.78,1.16,1.16,1.93.87l28.12-10.66c1.29-.49,2.64-.74,4.02-.74h.03l15.72.04c2.07,0,4.1.58,5.87,1.66l22.6,13.78c1.99,1.21,3.54,3,4.49,5.16,1.14,2.59,3.19,5.99,6.77,8.86l-8.49,1.31c-.41.06-.78.3-1.01.65-.23.34-.31.78-.22,1.18.06.27,1.31,6.18-4.64,12.29-.41-2.01-.89-3.93-1.43-5.56,1.76-2.89,2.71-5.17,2.8-5.4.31-.77-.06-1.64-.83-1.95-.77-.31-1.64.06-1.95.83-.05.12-4.62,11.16-12.77,15.27l.98-11.29c.06-.69-.36-1.33-1.02-1.55-.66-.22-1.38.04-1.75.63-.08.13-7.93,12.55-22.37,15.45,1.25-2.22,2.69-5.59,3.05-9.7.05-.63-.29-1.23-.87-1.49-.58-.26-1.26-.14-1.7.32-.08.08-7.4,7.43-21.03,4.94,2.46-2.53,6.22-7.11,6.63-11.79.07-.83-.54-1.55-1.37-1.62-.82-.06-1.55.54-1.62,1.37-.49,5.63-7.61,11.69-7.68,11.75-.43.36-.62.93-.5,1.48.12.55.54.98,1.08,1.12,11.41,3.02,19.31-.14,23.4-2.67-1.24,4.42-3.61,7.27-3.64,7.3-.4.46-.47,1.12-.19,1.66.26.5.78.81,1.33.81.04,0,.09,0,.14,0,12.18-1.11,20.48-8.37,24.69-13.14l-.75,8.63c-.04.5.17.99.56,1.3s.92.41,1.39.26c5.08-1.62,9.03-5.52,11.82-9.26,1.81,7.05,2.69,17.46,2.7,17.58.06.73.64,1.31,1.37,1.37,4.21.36,7.19,1.9,8.85,4.55,2.02,3.24,2.02,8.13-.02,13.41-3.35,8.71-20.32,19.13-38.02,20.04-.83.04-1.46.75-1.42,1.58.04.8.7,1.42,1.5,1.42.03,0,.05,0,.08,0,19.37-1,36.98-12.38,40.66-21.96,2.38-6.18,2.29-12.04-.24-16.08-1.98-3.16-5.38-5.16-9.89-5.81-.19-1.97-.62-6.03-1.33-10.25,6.68-5.85,7.28-12.03,7.12-14.89l10.84-1.68c.63-.1,1.13-.59,1.25-1.22.11-.63-.19-1.26-.74-1.58Z"/><ellipse class="cls-1" cx="80.37" cy="95.22" rx="7.02" ry="3.72" transform="translate(-21.42 167.08) rotate(-85.05)"/><ellipse class="cls-1" cx="106.32" cy="93.65" rx="7.02" ry="3.72" transform="translate(3.85 191.5) rotate(-85.05)"/></g></svg>